<svg id="visual" viewBox="0 0 900 600" width="900" height="600" xmlns="http://www.w3.org/2000/svg" xmlns:xlink="http://www.w3.org/1999/xlink" version="1.1"><rect x="0" y="0" width="900" height="600" fill="#002233"></rect><path d="M0 342L16.7 353.5C33.3 365 66.7 388 100 383C133.3 378 166.7 345 200 349.3C233.3 353.7 266.7 395.3 300 398.2C333.3 401 366.7 365 400 345.2C433.3 325.3 466.7 321.7 500 342.7C533.3 363.7 566.7 409.3 600 423.2C633.3 437 666.7 419 700 393.5C733.3 368 766.7 335 800 329.8C833.3 324.7 866.7 347.3 883.3 358.7L900 370L900 601L883.3 601C866.7 601 833.3 601 800 601C766.7 601 733.3 601 700 601C666.7 601 633.3 601 600 601C566.7 601 533.3 601 500 601C466.7 601 433.3 601 400 601C366.7 601 333.3 601 300 601C266.7 601 233.3 601 200 601C166.7 601 133.3 601 100 601C66.7 601 33.3 601 16.7 601L0 601Z" fill="#0066FF" stroke-linecap="round" stroke-linejoin="miter"></path></svg>